# AST/ASF file generated using VICON BodyLanguage
# -----------------------------------------------
:version 1.10
:name VICON
:units
  mass 1.0
  length 0.45
  angle deg
:documentation
   .ast/.asf automatically generated from VICON data using
   VICON BodyBuilder and BodyLanguage model FoxedUp or BRILLIANT.MOD
:root
   order TX TY TZ RX RY RZ
   axis XYZ
   position 0 0 0  
   orientation 0 0 0 
:bonedata
  begin
     id 1 
     name lhipjoint
     direction 0.671379 -0.66392 0.329334 
     length 2.38647 
     axis 0 0 0  XYZ
  end
  begin
     id 2 
     name lfemur
     direction 0.34202 -0.939693 0  
     length 6.48179  
     axis 0 0 20  XYZ
    dof rx ry rz
    limits (-160.0 20.0)
           (-70.0 70.0)
           (-60.0 70.0)
  end
  begin
     id 3 
     name ltibia
     direction 0.34202 -0.939693 0   
     length 6.86524   
     axis 0 0 20   XYZ
    dof rx
    limits (-10.0 170.0)
  end
  begin
     id 4 
     name lfoot
     direction 0.204886 -0.562919 0.800715   
     length 1.73031   
     axis -90 7.62852e-016 20   XYZ
    dof rx rz
    limits (-45.0 90.0)
           (-70.0 20.0)
  end
  begin
     id 5 
     name ltoes
     direction 1.53548e-011 -4.21841e-011 1   
     length 0.828161   
     axis -90 7.62852e-016 20   XYZ
    dof rx
    limits (-90.0 20.0)
  end
  begin
     id 6 
     name rhipjoint
     direction -0.662732 -0.670855 0.332775   
     length 2.3618  
     axis 0 0 0  XYZ 
  end
  begin
     id 7 
     name rfemur
     direction -0.34202 -0.939693 0   
     length 6.3025   
     axis 0 0 -20   XYZ
    dof rx ry rz
    limits (-160.0 20.0)
           (-70.0 70.0)
           (-70.0 60.0)
  end
  begin
     id 8 
     name rtibia
     direction -0.34202 -0.939693 0   
     length 6.8732   
     axis 0 0 -20   XYZ
    dof rx
    limits (-10.0 170.0)
 end
 begin
     id 9 
     name rfoot
     direction -0.173856 -0.477665 0.861168   
     length 1.54784  
     axis -90 -7.62852e-016 -20   XYZ
    dof rx rz
    limits (-45.0 90.0)
           (-20.0 70.0)
  end
  begin
     id 10 
     name rtoes
     direction -1.53562e-011 -4.21802e-011 1   
     length 0.759618   
     axis -90 -7.62852e-016 -20   XYZ
    dof rx
    limits (-90.0 20.0)
  end
  begin
     id 11 
     name lowerback
     direction -0.0278357 0.999497 -0.0151789   
     length 1.97203   
     axis 0 0 0   XYZ
    dof rx ry rz
    limits (-20.0 45.0)
           (-30.0 30.0)
           (-30.0 30.0)
  end
  begin
     id 12 
     name upperback
     direction -0.00360622 0.997542 0.0699804   
     length 1.94709   
     axis 0 0 0   XYZ
    dof rx ry rz
    limits (-20.0 45.0)
           (-30.0 30.0)
           (-30.0 30.0)
  end
  begin
     id 13 
     name thorax
     direction 0.00907706 0.997048 0.0762461   
     length 1.95722   
     axis 0 0 0   XYZ
    dof rx ry rz
    limits (-20.0 45.0)
           (-30.0 30.0)
           (-30.0 30.0)
  end
  begin
     id 14 
     name lowerneck
     direction -0.0481835 0.99872 -0.0153927   
     length 1.63078   
     axis 0 0 0   XYZ
    dof rx ry rz
    limits (-20.0 45.0)
           (-30.0 30.0)
           (-30.0 30.0)
  end
  begin
     id 15 
     name upperneck
     direction 0.0859716 0.979226 -0.183644   
     length 1.62591   
     axis 0 0 0   XYZ
    dof rx ry rz
    limits (-20.0 45.0)
           (-30.0 30.0)
           (-30.0 30.0)
  end
  begin
     id 16
     name head
     direction 0.0324821 0.997629 -0.0606773  
     length 1.64811  
     axis 0 0 0   XYZ
    dof rx ry rz
    limits (-20.0 45.0)
           (-30.0 30.0)
           (-30.0 30.0)
  end
  begin
     id 17 
     name lclavicle
     direction 0.939609 0.311019 0.142835  
     length 3.70647  
     axis 0 0 0   XYZ
    dof ry rz
    limits (-20.0 10.0)
           (0.0 20.0)
  end
  begin
     id 18 
     name lhumerus
     direction 1 -4.48963e-011 -1.59838e-027   
     length 4.59207   
     axis 180 -30 -90   XYZ
    dof rx ry rz
    limits (-60.0 90.0)
           (-90.0 90.0)
           (-90.0 90.0)
  end
  begin
     id 19
     name lradius
     direction 1 -4.48957e-011 -1.3483e-026   
     length 2.98109   
     axis 180 -30 -90   XYZ
    dof rx
    limits (-10.0 170.0)
  end
  begin
     id 20
     name lwrist
     direction 1 -4.48954e-011 -3.11579e-026   
     length 1.49055   
     axis 2.00652e-014 90 90   XYZ
    dof ry
    limits (-180.0 0.0)
 end
  begin
     id 21 
     name lhand
     direction 1 -4.4911e-011 -6.23158e-026   
     length 0.480203   
     axis 3.97628e-014 90 90   XYZ
    dof rx rz
    limits (-90.0 90.0)
           (-45.0 45.0)
  end
  begin
     id 22 
     name lfingers
     direction 1 -4.48893e-011 -1.24632e-025   
     length 0.387152   
     axis 7.95256e-014 90 90   XYZ
    dof rx
    limits (0.0 90.0)
  end
  begin
     id 23
     name lthumb
     direction 0.707107 -6.35013e-011 0.707107   
     length 0.555875   
     axis -90 45 2.85299e-015   XYZ
    dof rx rz
    limits (-45.0 45.0)
           (-45.0 45.0)
  end
  begin
     id 24 
     name rclavicle
     direction -0.950396 0.30392 0.0661859   
     length 3.70894  
     axis 0 0 0   XYZ 
    dof ry rz
    limits (-10.0 20.0)
           (-20.0 0.0)
  end
  begin
     id 25 
     name rhumerus
     direction -1 -4.48957e-011 -2.96677e-027  
     length 4.76508   
     axis 180 30 90   XYZ
    dof rx ry rz
    limits (-90.0 60.0)
           (-90.0 90.0)
           (-90.0 90.0)
  end
  begin
     id 26 
     name rradius
     direction -1 -4.48974e-011 -1.44501e-026   
     length 2.78902   
     axis 180 30 90   XYZ
    dof rx
    limits (-10.0 170.0)
  end
  begin
     id 27 
     name rwrist
     direction -1 -4.48978e-011 -3.11579e-026   
     length 1.39451   
     axis 2.00652e-014 -90 -90   XYZ
    dof ry
    limits (-180.0 0.0)
  end
  begin
     id 28
     name rhand
     direction -1 -4.48956e-011 -6.23158e-026   
     length 0.721303   
     axis 3.97628e-014 -90 -90   XYZ
    dof rx rz
    limits (-90.0 90.0)
           (-45.0 45.0)
  end
  begin
     id 29
     name rfingers
     direction -1 -4.4899e-011 -1.24632e-025   
     length 0.581533   
     axis 7.95256e-014 -90 -90   XYZ
    dof rx
    limits (0.0 90.0)
  end
  begin
     id 30
     name rthumb
     direction -0.707107 -6.34911e-011 0.707107   
     length 0.834968   
     axis -90 -45 -2.85299e-015   XYZ
    dof rx rz
    limits (-45.0 45.0)
           (-45.0 45.0)
  end
:hierarchy
  begin
    root lhipjoint rhipjoint lowerback
    lhipjoint lfemur
    lfemur ltibia
    ltibia lfoot
    lfoot ltoes
    rhipjoint rfemur
    rfemur rtibia
    rtibia rfoot
    rfoot rtoes
    lowerback upperback
    upperback thorax
    thorax lowerneck lclavicle rclavicle
    lowerneck upperneck
    upperneck head
    lclavicle lhumerus
    lhumerus lradius
    lradius lwrist
    lwrist lhand lthumb
    lhand lfingers
    rclavicle rhumerus
    rhumerus rradius
    rradius rwrist
    rwrist rhand rthumb
    rhand rfingers
  end

#!OML:ASF I:\salsa\salsa 7_09\Patient 1\Session 1\dancerfemale.ASF
:FULLY-SPECIFIED
:DEGREES
1
root 22.5196 16.1464 -2.3312 3.38552 -67.4782 4.10955
lowerback 0.637242 4.84222 7.27176
upperback -3.41121 6.58874 -1.81829
thorax -2.87427 3.06537 -6.09412
lowerneck -1.49541 18.4012 1.16767
upperneck 9.10221 24.5906 0.329822
head 3.32297 12.2398 0.761218
rclavicle -3.76728e-014 4.37326e-015
rhumerus -26.4913 -10.5082 -88.1251
rradius 16.8597
rwrist -14.7191
rhand -12.7233 38.6672
rfingers 7.12502
rthumb 13.3599 9.11547
lclavicle -3.76728e-014 4.37326e-015
lhumerus -46.9831 30.0186 69.9611
lradius 37.0723
lwrist -16.3984
lhand -15.0784 40.6471
lfingers 7.12502
lthumb 11.0891 70.3342
rfemur -13.5301 -7.31377 20.8087
rtibia 22.9611
rfoot -27.0954 -25.5312
rtoes 17.0957
lfemur -20.5577 -13.2192 -11.9479
ltibia 30.8987
lfoot -19.0455 -3.48222
ltoes -31.2955
2
root 22.537 16.136 -2.23424 4.19061 -67.8849 3.03581
lowerback 0.497263 5.13852 7.01475
upperback -3.48156 6.97339 -1.5689
thorax -2.86772 3.26457 -5.6804
lowerneck -1.39647 17.9379 1.36341
upperneck 9.18545 23.9439 0.548524
head 3.32442 11.9332 0.771081
rclavicle -9.47644e-015 -5.56597e-015
rhumerus -28.7552 -27.1599 -79.494
rradius 15.7983
rwrist 9.49836
rhand -5.61942 42.8163
rfingers 7.12502
rthumb 20.1982 13.8464
lclavicle -9.47644e-015 -5.56597e-015
lhumerus -46.766 29.6266 70.552
lradius 36.7378
lwrist -16.632
lhand -16.5087 38.1979
lfingers 7.12502
lthumb 9.70942 67.9541
rfemur -13.2337 -7.26855 20.8504
rtibia 22.8482
rfoot -27.5422 -25.4583
rtoes 16.2067
lfemur -20.1648 -12.958 -12.0208
ltibia 31.0831
lfoot -19.7883 -2.62701
ltoes -32.1678
3
root 22.5504 16.1273 -2.13478 4.65985 -68.3856 2.47026
lowerback 0.0603931 5.43179 6.25429
upperback -3.53574 7.32321 -1.19293
thorax -2.76368 3.46525 -4.82984
lowerneck -1.64668 17.4621 1.31433
upperneck 9.67355 23.2794 0.950618
head 3.47504 11.6106 0.922073
rclavicle -1.82348e-013 -1.66979e-014
rhumerus -30.7872 -28.7589 -77.7499
rradius 17.9806
rwrist 10.3992
rhand -4.8316 41.9096
rfingers 7.12502
rthumb 20.9552 13.0216
lclavicle -1.82348e-013 -1.66979e-014
lhumerus -46.6419 29.1745 71.4571
lradius 36.6267
lwrist -16.596
lhand -17.5967 36.1103
lfingers 7.12502
lthumb 8.65956 65.9127
rfemur -13.1202 -7.1505 20.664
rtibia 22.8319
rfoot -26.6018 -25.2398
rtoes 14.4534
lfemur -19.7798 -12.685 -12.3292
ltibia 31.0898
lfoot -20.4476 -1.88693
ltoes -32.1108
4
root 22.5642 16.122 -2.03033 5.15371 -68.9468 1.88427
lowerback -0.293142 5.92013 5.50123
upperback -3.68072 7.94366 -0.95787
thorax -2.76721 3.7933 -4.14442
lowerneck -2.10048 16.807 1.50624
upperneck 10.4306 22.3398 1.55873
head 3.76606 11.1658 1.13512
rclavicle 2.29596e-014 7.15625e-015
rhumerus -33.9419 -28.474 -76.5006
rradius 21.6632
rwrist 8.75146
rhand -3.85127 40.5455
rfingers 7.12502
rthumb 21.8968 11.7645
lclavicle 2.29596e-014 7.15625e-015
lhumerus -46.3466 27.9641 72.6115
lradius 36.5523
lwrist -16.4032
lhand -19.1312 33.3286
lfingers 7.12502
lthumb 7.17852 63.1869
rfemur -12.9756 -6.82406 20.4464
rtibia 22.7628
rfoot -26.1823 -25.0177
rtoes 14.7239
lfemur -19.366 -12.3896 -12.6677
ltibia 31.0863
lfoot -21.0551 -1.25794
ltoes -31.7154
5
root 22.5829 16.1207 -1.9247 5.85165 -69.4446 1.11503
lowerback -0.614918 6.47036 4.96822
upperback -3.88565 8.65298 -0.921935
thorax -2.80436 4.15632 -3.78903
lowerneck -2.44132 15.7295 1.85248
upperneck 10.8644 20.7832 2.39636
head 3.91957 10.44 1.33511
rclavicle 3.05383e-014 -4.37326e-015
rhumerus -37.0719 -29.0139 -75.396
rradius 26.0001
rwrist 7.45243
rhand -2.78178 38.3319
rfingers 7.12502
rthumb 22.9234 9.67467
lclavicle 3.05383e-014 -4.37326e-015
lhumerus -45.8571 26.2082 73.7739
lradius 36.41
lwrist -16.0335
lhand -20.7987 30.36
lfingers 7.12502
lthumb 5.56869 60.2668
rfemur -12.8391 -6.23667 20.2865
rtibia 22.6695
rfoot -26.0259 -24.9562
rtoes 15.8063
lfemur -18.9965 -12.1288 -12.8938
ltibia 31.0056
lfoot -21.5857 -0.824174
ltoes -31.3014
